<svg xmlns="http://www.w3.org/2000/svg" version="1.0" width="640.000000pt" height="428.000000pt" viewBox="0 0 640.000000 428.000000" preserveAspectRatio="xMidYMid meet">
<metadata>
Created by potrace 1.16, written by Peter Selinger 2001-2019
</metadata>
<g transform="translate(0.000000,428.000000) scale(0.100000,-0.100000)" fill="#000000" stroke="none">
<path d="M2302 3752 c-10 -7 -13 -114 -15 -498 l-2 -489 -273 -5 -274 -5 -34 -37 c-19 -21 -34 -48 -34 -60 -1 -13 -2 -351 -3 -753 l-2 -730 -89 -3 c-50 -2 -96 -8 -103 -14 -16 -13 -18 -156 -3 -210 15 -54 52 -93 122 -127 l61 -31 1391 0 c1145 1 1398 3 1429 14 58 21 111 62 136 106 19 35 21 51 19 147 l-3 108 -92 3 -93 3 0 74 0 75 260 0 261 0 24 25 c23 22 25 31 25 120 0 53 -5 105 -10 116 -10 18 -24 19 -285 19 l-275 0 0 520 c0 563 0 559 -55 610 l-27 25 -296 5 -297 5 -3 231 -2 230 -108 105 c-330 322 -326 319 -371 319 l-40 0 -7 49 c-5 39 -11 50 -28 55 -33 9 -889 7 -904 -2z m886 -74 l3 -28 -389 0 c-314 0 -392 -3 -401 -13 -8 -10 -12 -248 -13 -833 l-3 -819 -25 0 -25 0 -3 850 c-1 468 0 856 3 863 3 10 94 12 427 10 l423 -3 3 -27z m104 -275 l3 -198 208 -3 207 -2 0 -660 0 -660 -22 -5 c-13 -3 -297 -4 -633 -3 l-610 3 -3 863 -2 862 425 0 425 0 2 -197z m316 -96 c44 -44 50 -55 35 -58 -10 -2 -82 -3 -160 -1 l-143 3 0 156 0 155 108 -100 c59 -55 131 -125 160 -155z m-1323 -1089 c0 -146 3 -270 8 -274 4 -4 27 -7 52 -5 l44 2 3 -53 3 -53 680 0 680 0 3 328 2 327 205 0 205 0 -2 -442 -3 -443 -410 -5 -410 -5 -117 -57 c-114 -55 -134 -73 -105 -95 6 -6 67 -35 135 -67 l122 -56 395 0 395 0 0 -75 0 -75 -1122 2 -1123 3 -3 658 -2 657 182 -2 183 -3 0 -267z m2353 -756 l-3 -87 -550 0 -550 0 0 30 0 30 510 5 c502 5 510 5 510 25 0 20 -8 20 -512 23 l-513 2 0 29 c0 16 4 31 10 33 5 2 255 2 555 0 l546 -2 -3 -88z m-1158 3 l0 -85 -55 0 c-44 0 -71 8 -140 42 l-85 43 87 41 c67 32 101 42 141 43 l52 1 0 -85z m1480 0 l0 -85 -90 0 -90 0 0 85 0 85 90 0 90 0 0 -85z"/>
<path d="M2543 3414 c-3 -9 0 -20 8 -25 8 -5 100 -8 204 -6 183 2 190 3 190 22 0 19 -8 20 -198 23 -174 2 -198 1 -204 -14z"/>
<path d="M2551 3331 c-8 -5 -11 -16 -8 -25 6 -15 30 -16 204 -14 190 3 198 4 198 23 0 19 -7 20 -190 22 -104 2 -196 -1 -204 -6z"/>
<path d="M2545 2960 c-3 -5 -3 -14 0 -20 4 -6 187 -10 516 -10 481 0 510 1 507 18 -3 16 -37 17 -510 20 -333 1 -509 -1 -513 -8z"/>
<path d="M2551 2856 c-7 -8 -10 -20 -6 -26 4 -7 171 -10 511 -10 446 0 505 2 511 15 3 9 2 19 -2 23 -3 4 -231 8 -504 10 -430 2 -500 1 -510 -12z"/>
<path d="M3035 2760 c-427 -4 -490 -7 -490 -20 0 -13 63 -15 510 -15 462 0 510 2 513 16 2 11 -5 18 -20 20 -13 2 -243 2 -513 -1z"/>
<path d="M2550 2645 c-6 -8 -9 -19 -5 -25 4 -7 171 -10 511 -10 453 0 505 2 511 16 3 9 0 20 -8 25 -8 5 -235 9 -505 9 -418 0 -493 -2 -504 -15z"/>
<path d="M2543 2534 c-3 -8 -1 -20 4 -25 5 -5 208 -8 514 -7 496 3 504 3 504 23 0 20 -8 20 -508 23 -454 2 -508 1 -514 -14z"/>
<path d="M2543 2424 c-3 -8 -1 -20 4 -25 5 -5 208 -8 514 -7 496 3 504 3 504 23 0 20 -8 20 -508 23 -454 2 -508 1 -514 -14z"/>
<path d="M2543 2324 c-3 -8 -1 -20 4 -25 5 -5 208 -8 514 -7 496 3 504 3 504 23 0 20 -8 20 -508 23 -454 2 -508 1 -514 -14z"/>
<path d="M3815 3238 c-3 -8 -4 -97 -3 -198 l3 -185 163 -3 c142 -2 163 0 169 14 10 28 -17 34 -154 34 l-133 0 -2 172 c-3 155 -5 173 -21 176 -9 2 -19 -3 -22 -10z"/>
<path d="M1603 2864 c-18 -9 -42 -31 -53 -49 -20 -32 -21 -48 -21 -441 0 -252 3 -410 9 -416 29 -29 32 10 32 398 0 421 2 438 49 464 11 5 77 10 148 10 132 0 160 7 150 34 -9 23 -267 23 -314 0z"/>
<path d="M1545 680 c-4 -6 -1 -17 5 -25 11 -13 147 -15 1024 -13 1003 3 1011 3 1011 23 0 20 -8 20 -1017 23 -701 1 -1019 -1 -1023 -8z"/>
<path d="M1665 560 c-222 -4 -260 -7 -260 -20 0 -13 46 -15 344 -18 342 -2 382 1 353 30 -14 14 -73 15 -437 8z"/>
<path d="M2725 557 c-48 -36 -19 -37 706 -37 641 0 710 2 716 16 3 9 0 20 -8 25 -7 4 -324 8 -704 9 -565 0 -694 -2 -710 -13z"/>
</g>
</svg>